<svg xmlns="http://www.w3.org/2000/svg" xmlns:xlink="http://www.w3.org/1999/xlink" width="51" height="32" viewBox="0 0 51 32">
  <defs>
    <clipPath id="clip-path">
      <rect id="Rectangle_23" data-name="Rectangle 23" width="15.33" height="31.307" fill="none"/>
    </clipPath>
  </defs>
  <g id="lenovo-accessories-icon" transform="translate(-812 -1861)">
    <rect id="Rectangle_70" data-name="Rectangle 70" width="51" height="32" transform="translate(812 1861)" fill="silver" opacity="0"/>
    <g id="Group_38" data-name="Group 38" transform="translate(829.835 1861.692)">
      <g id="Group_14" data-name="Group 14" clip-path="url(#clip-path)">
        <path id="Path_11" data-name="Path 11" d="M19.859,76.187a2.025,2.025,0,1,0,2.025,2.025,2.025,2.025,0,0,0-2.025-2.025m0,3.038a1.013,1.013,0,1,1,1.013-1.013,1.013,1.013,0,0,1-1.013,1.013" transform="translate(-12.194 -52.094)"/>
        <path id="Path_12" data-name="Path 12" d="M23.035,6.449H21.77V5.2A5.1,5.1,0,0,1,23.263,1.6l1.6-1.6.894.894-1.6,1.6A3.808,3.808,0,0,0,23.035,5.2Z" transform="translate(-14.886 0)"/>
        <path id="Path_13" data-name="Path 13" d="M5.82,19.156H9.51l5.82,3.349V36.741A7.667,7.667,0,0,1,.6,39.724,7.618,7.618,0,0,1,0,36.741V22.505Zm3.352,1.265H6.158L1.265,23.237v13.5a6.4,6.4,0,0,0,12.8,0v-13.5Z" transform="translate(0 -13.098)"/>
        <path id="Ellipse_1" data-name="Ellipse 1" d="M.181-2A2.183,2.183,0,0,1,2.362.181,2.183,2.183,0,0,1,.181,2.362,2.183,2.183,0,0,1-2,.181,2.183,2.183,0,0,1,.181-2Zm0,3.1A.917.917,0,0,0,1.1.181.917.917,0,0,0,.181-.735.917.917,0,0,0-.735.181.917.917,0,0,0,.181,1.1Z" transform="translate(7.484 25.843)"/>
        <path id="Path_14" data-name="Path 14" d="M21.771,32.191H17.526V22.358H18.79v8.568h1.716V22.358h1.265Z" transform="translate(-11.983 -15.288)"/>
        <path id="Path_15" data-name="Path 15" d="M14.825,55.95,9.59,50.715H7.136L1.965,55.947l-.9-.889,5.542-5.607h3.507l5.6,5.6Z" transform="translate(-0.728 -33.812)"/>
        <path id="Line_1" data-name="Line 1" d="M2.981-.735H0V-2H2.981Z" transform="translate(6.175 14.72)"/>
        <path id="Line_2" data-name="Line 2" d="M2.981-.735H0V-2H2.981Z" transform="translate(6.175 10.322)"/>
      </g>
    </g>
  </g>
</svg>
