<svg xmlns="http://www.w3.org/2000/svg" width="51" height="32" viewBox="0 0 51 32">
  <g id="lenovo-workstations-icon" transform="translate(-386 -1861)">
    <rect id="Rectangle_65" data-name="Rectangle 65" width="51" height="32" transform="translate(386 1861)" fill="silver" opacity="0"/>
    <g id="Group_29" data-name="Group 29" transform="translate(43.749 392.15)">
      <path id="Rectangle_29" data-name="Rectangle 29" d="M-2-2H16.948V10.446H-2ZM15.045-.1H-.1V8.543H15.045Z" transform="translate(353.256 1482.854)"/>
      <path id="Path_8" data-name="Path 8" d="M51.022,85.036H26.086V83.574L29.223,79.3l1.535,1.126L28.77,83.133H48.308l-2.065-2.776,1.527-1.136,3.252,4.371Z" transform="translate(322.165 1412.487)"/>
      <path id="Rectangle_30" data-name="Rectangle 30" d="M-2-2H10.873V22.832H-2ZM8.97-.1H-.1V20.929H8.97Z" transform="translate(377.22 1474.177)"/>
      <path id="Line_2" data-name="Line 2" d="M10.97-.1H0V-2H10.97Z" transform="translate(375.736 1484.957)"/>
    </g>
  </g>
</svg>
