<svg xmlns="http://www.w3.org/2000/svg" width="51" height="32" viewBox="0 0 51 32">
  <g id="lenovo-desktop-icon" transform="translate(-302 -1861)">
    <rect id="Rectangle_64" data-name="Rectangle 64" width="51" height="32" transform="translate(302 1861)" fill="silver" opacity="0"/>
    <g id="Group_27" data-name="Group 27" transform="translate(106.839 392.241)">
      <path id="Rectangle_25" data-name="Rectangle 25" d="M-2-2H31.771V18.409H-2ZM30.059-.288H-.288V16.7H30.059Z" transform="translate(205.275 1473.964)"/>
      <path id="Rectangle_26" data-name="Rectangle 26" d="M-2-2H7.693V2.692H-2ZM5.981-.288H-.288V.981H5.981Z" transform="translate(217.182 1470.983)"/>
      <path id="Rectangle_27" data-name="Rectangle 27" d="M-2-2H13.021V3.653H-2ZM11.309-.288H-.288v2.23h11.6Z" transform="translate(214.605 1497.106)"/>
      <path id="Path_6" data-name="Path 6" d="M87.839,93.95H87.05V92.239h.789a2.009,2.009,0,0,0,2.276-1.993,2.561,2.561,0,0,0-.818-1.383,9.093,9.093,0,0,0-2.086-1.627l.845-1.488A10.876,10.876,0,0,1,90.55,87.7a3.943,3.943,0,0,1,1.277,2.549A3.687,3.687,0,0,1,87.839,93.95Z" transform="translate(140.357 1405.075)"/>
    </g>
  </g>
</svg>
