<?xml version="1.0" encoding="UTF-8"?>
<svg id="_图层_1" data-name="图层 1" xmlns="http://www.w3.org/2000/svg" width="50" height="32" version="1.1" viewBox="0 0 50 32">
  <defs>
    <style>
      .cls-1 {
        stroke-width: 2px;
      }

      .cls-1, .cls-2 {
        fill: none;
        stroke: #231815;
        stroke-miterlimit: 10;
      }
    </style>
  </defs>
  <path class="cls-2" d="M11.8,6.2l-2.4,11.7c-.4,1.9,1.1,3.6,3,3.6h25.3c1.9,0,3.3-1.8,3-3.6l-2.4-11.7c-.3-1.4-1.5-2.4-3-2.4H14.7c-1.4,0-2.7,1-3,2.4Z"/>
  <g>
    <g>
      <path class="cls-2" d="M23.7,7.4v2.4c0,.6-.5,1.1-1.1,1.1h-7.6c-.7,0-1.2-.6-1.1-1.3l.4-2.4c0-.5.6-.9,1.1-.9h7.2c.6,0,1.1.5,1.1,1.1Z"/>
      <path class="cls-2" d="M14.3,13.5h8.4c.6,0,1.1.5,1.1,1.1v3.4c0,.6-.5,1.1-1.1,1.1h-8.9c-.7,0-1.2-.6-1.1-1.2l.6-3.4c0-.5.6-.9,1.1-.9Z"/>
    </g>
    <g>
      <path class="cls-2" d="M27.4,6.3h7.2c.6,0,1,.4,1.1.9l.4,2.4c.1.7-.4,1.3-1.1,1.3h-7.6c-.6,0-1.1-.5-1.1-1.1v-2.4c0-.6.5-1.1,1.1-1.1Z"/>
      <path class="cls-2" d="M36.9,14.4l.6,3.4c.1.7-.4,1.2-1.1,1.2h-8.9c-.6,0-1.1-.5-1.1-1.1v-3.4c0-.6.5-1.1,1.1-1.1h8.4c.6,0,1,.4,1.1.9Z"/>
    </g>
  </g>
  <line class="cls-1" x1="25" y1="21.3" x2="25" y2="27.5"/>
  <line class="cls-1" x1="32.1" y1="28.2" x2="17.9" y2="28.2"/>
</svg>