<svg width="123" height="40" viewBox="0 0 123 40" fill="none" xmlns="http://www.w3.org/2000/svg">
<g clip-path="url(#clip0_1810_1719)">
<g clip-path="url(#clip1_1810_1719)">
<path d="M0 0H123V40H0V0Z" fill="#E1140A"/>
<path d="M53.8068 13.9072C52.8136 13.9108 51.8342 14.1397 50.9418 14.5769C50.0494 15.014 49.2673 15.6481 48.6541 16.4314V14.1722H44.3233V29.9631H48.6549V20.9756C48.6617 20.5184 48.7606 20.0673 48.9458 19.6495C49.131 19.2317 49.3986 18.8557 49.7324 18.5443C50.0663 18.2329 50.4596 17.9924 50.8885 17.8374C51.3175 17.6824 51.7733 17.616 52.2286 17.6422C52.6866 17.6194 53.1447 17.6877 53.5763 17.8431C54.0079 17.9985 54.4046 18.2381 54.7435 18.5479C55.0824 18.8578 55.3568 19.2318 55.551 19.6484C55.7451 20.0651 55.855 20.5161 55.8745 20.9756V29.9631H60.2086V20.1664C60.2356 19.3236 60.0873 18.4844 59.7731 17.7021C59.459 16.9199 58.9859 16.2118 58.384 15.6229C57.7821 15.034 57.0645 14.5772 56.2769 14.2815C55.4893 13.9859 54.6489 13.8578 53.8093 13.9056L53.8068 13.9072ZM91.011 14.1722L87.0924 24.9322L83.1764 14.1722H78.219L84.7222 29.9631H89.466L95.9642 14.1722H91.011ZM31.3925 18.9297C31.7823 18.4215 32.287 18.0136 32.8651 17.7396C33.4431 17.4656 34.0778 17.3334 34.7169 17.3539C35.4319 17.3495 36.1322 17.5573 36.7296 17.9512C37.3271 18.345 37.795 18.9073 38.0744 19.5672L30.5116 22.7014C30.402 22.0459 30.4229 21.3751 30.5733 20.7277C30.7236 20.0803 31.0004 19.4693 31.3876 18.9297H31.3925ZM39.7067 25.1064C37.8874 26.4606 36.8378 26.7831 35.1814 26.7831C34.543 26.8131 33.9049 26.715 33.3047 26.4947C32.7045 26.2743 32.1541 25.936 31.6859 25.4997L42.7676 20.8956C42.5675 19.2783 41.9113 17.7519 40.876 16.4956C40.0923 15.6286 39.1271 14.9463 38.0495 14.4975C36.9718 14.0487 35.8085 13.8446 34.6429 13.8997C33.553 13.8617 32.4667 14.0453 31.4495 14.4394C30.4322 14.8336 29.5051 15.4302 28.724 16.1933C27.9429 16.9564 27.3239 17.8701 26.9044 18.8795C26.4849 19.8889 26.2735 20.9729 26.2831 22.0664C26.2831 26.8289 29.8875 30.2331 35.1241 30.2331C37.8688 30.2338 40.5034 29.1507 42.4576 27.2181L39.7067 25.1064ZM25.8767 25.9789H16.0259V9.44141H11.6353V29.9714H25.8767V25.9789ZM103.737 17.6197C103.166 17.6146 102.599 17.728 102.073 17.9529C101.548 18.1778 101.074 18.5093 100.682 18.9266C100.29 19.3438 99.9882 19.8379 99.7958 20.3776C99.6033 20.9174 99.5243 21.4912 99.5636 22.0631C99.5443 22.6361 99.6393 23.2073 99.8429 23.7431C100.047 24.2789 100.355 24.7686 100.749 25.1835C101.144 25.5984 101.617 25.9301 102.142 26.1593C102.666 26.3884 103.23 26.5104 103.802 26.5181C104.373 26.5177 104.938 26.4001 105.462 26.1726C105.986 25.9451 106.459 25.6124 106.85 25.1951C107.241 24.7778 107.543 24.2847 107.737 23.746C107.931 23.2074 108.013 22.6347 107.977 22.0631C107.997 21.4906 107.902 20.9201 107.698 20.3849C107.494 19.8498 107.186 19.361 106.791 18.947C106.396 18.5331 105.923 18.2024 105.398 17.9745C104.874 17.7466 104.31 17.626 103.739 17.6197H103.737ZM103.739 30.2322C102.146 30.1603 100.609 29.6208 99.3183 28.6809C98.028 27.7409 97.0413 26.4417 96.4807 24.9446C95.92 23.4474 95.8101 21.8182 96.1646 20.2589C96.519 18.6997 97.3222 17.2792 98.4745 16.1735C99.6268 15.0678 101.077 14.3257 102.647 14.0393C104.216 13.7528 105.834 13.9346 107.301 14.562C108.768 15.1895 110.019 16.235 110.899 17.5689C111.779 18.9028 112.248 20.4664 112.25 22.0656C112.245 23.1678 112.018 24.2576 111.584 25.2701C111.15 26.2827 110.516 27.1972 109.722 27.9592C108.928 28.7213 107.989 29.3152 106.961 29.7058C105.933 30.0963 104.837 30.2753 103.739 30.2322V30.2322ZM70.3819 17.6197C69.8098 17.6146 69.2428 17.7279 68.7164 17.9527C68.1901 18.1774 67.7157 18.5087 67.3229 18.9258C66.9302 19.343 66.6275 19.8369 66.434 20.3768C66.2405 20.9166 66.1602 21.4907 66.1982 22.0631C66.1794 22.636 66.2746 23.207 66.4784 23.7426C66.6822 24.2782 66.9904 24.7677 67.3851 25.1825C67.7797 25.5973 68.2528 25.929 68.7768 26.1584C69.3008 26.3877 69.8651 26.51 70.4367 26.5181C71.0086 26.5188 71.5745 26.4021 72.0997 26.1751C72.6248 25.9481 73.098 25.6156 73.4901 25.1982C73.8821 24.7808 74.1848 24.2872 74.3793 23.748C74.5739 23.2088 74.6562 22.6354 74.6212 22.0631C74.6398 21.4907 74.5444 20.9204 74.3404 20.3856C74.1364 19.8507 73.828 19.3621 73.4332 18.9483C73.0385 18.5344 72.5653 18.2038 72.0415 17.9757C71.5177 17.7475 70.9538 17.6265 70.3827 17.6197H70.3819ZM70.3827 30.2322C68.7894 30.1604 67.2522 29.6211 65.9618 28.6812C64.6713 27.7414 63.6845 26.4422 63.1238 24.9451C62.563 23.448 62.453 21.8187 62.8074 20.2594C63.1617 18.7001 63.9648 17.2795 65.1171 16.1737C66.2694 15.068 67.7201 14.3258 69.2892 14.0393C70.8583 13.7528 72.4768 13.9345 73.9438 14.5619C75.4109 15.1894 76.6619 16.2349 77.5417 17.5688C78.4215 18.9027 78.8914 20.4663 78.893 22.0656C78.8887 23.168 78.6629 24.2583 78.2291 25.2713C77.7953 26.2844 77.1623 27.1993 76.368 27.9616C75.5736 28.7238 74.6342 29.3178 73.6059 29.7079C72.5775 30.098 71.4813 30.2764 70.3827 30.2322" fill="white"/>
</g>
</g>
<defs>
<clipPath id="clip0_1810_1719">
<rect width="123" height="40" fill="white"/>
</clipPath>
<clipPath id="clip1_1810_1719">
<rect width="123" height="40" fill="white"/>
</clipPath>
</defs>
</svg>
